<svg xmlns="http://www.w3.org/2000/svg" viewBox="0 0 625.59 427.14"><defs><style>.cls-1{fill:#f0fdfb;}.cls-2{fill:#e1964c;}</style></defs><g id="Layer_2" data-name="Layer 2"><g id="Layer_1-2" data-name="Layer 1"><path class="cls-1" d="M498.74,235.09,560.28,154,438.44,61.54,357.34,0,295.8,81.11,180.21,233.45l-14.8-11.22L145.75,183.9,8.14,158.46l65.39,49.61,11.91,9A15.59,15.59,0,1,1,79.16,229L65.51,218.66,0,169l62.2,128.6L99.45,300l19.22,14.58A101.81,101.81,0,0,0,261.31,295L376.9,142.64Z"/><path class="cls-2" d="M585.32,173h0L469.72,325.33,348.24,233.15,286.7,314.26l121.48,92.17h0a101.8,101.8,0,0,0,142.64-19.57h0l54-71.24A101.8,101.8,0,0,0,585.32,173Z"/></g></g></svg>